<?xml version="1.0" encoding="utf-8" standalone="no"?>
<!DOCTYPE svg PUBLIC "-//W3C//DTD SVG 1.1//EN"
  "http://www.w3.org/Graphics/SVG/1.1/DTD/svg11.dtd">
<svg xmlns:xlink="http://www.w3.org/1999/xlink" width="424.768437pt" height="431.283125pt" viewBox="0 0 424.768437 431.283125" xmlns="http://www.w3.org/2000/svg" version="1.1">
 <metadata>
  <rdf:RDF xmlns:dc="http://purl.org/dc/elements/1.1/" xmlns:cc="http://creativecommons.org/ns#" xmlns:rdf="http://www.w3.org/1999/02/22-rdf-syntax-ns#">
   <cc:Work>
    <dc:type rdf:resource="http://purl.org/dc/dcmitype/StillImage"/>
    <dc:date>2025-12-10T09:33:03.203540</dc:date>
    <dc:format>image/svg+xml</dc:format>
    <dc:creator>
     <cc:Agent>
      <dc:title>Matplotlib v3.10.6, https://matplotlib.org/</dc:title>
     </cc:Agent>
    </dc:creator>
   </cc:Work>
  </rdf:RDF>
 </metadata>
 <defs>
  <style type="text/css">*{stroke-linejoin: round; stroke-linecap: butt}</style>
 </defs>
 <g id="figure_1">
  <g id="patch_1">
   <path d="M 0 431.283125 
L 424.768437 431.283125 
L 424.768437 0 
L 0 0 
z
" style="fill: #ffffff; stroke: #000000; stroke-width: 2; stroke-linejoin: miter"/>
  </g>
  <g id="axes_1">
   <g id="patch_2">
    <path d="M 28.942188 407.405 
L 414.387187 407.405 
L 414.387187 21.96 
L 28.942188 21.96 
z
" style="fill: #ffffff"/>
   </g>
   <g id="patch_3">
    <path d="M 221.664688 214.6825 
L 237.724896 214.6825 
L 237.724896 193.268889 
L 221.664688 193.268889 
L 221.664688 214.6825 
z
" clip-path="url(#p799c08e757)" style="fill: none; stroke: #000000; stroke-linejoin: miter"/>
   </g>
   <g id="patch_4">
    <path d="M 221.664688 193.268889 
L 237.724896 193.268889 
L 237.724896 171.855278 
L 221.664688 171.855278 
L 221.664688 193.268889 
z
" clip-path="url(#p799c08e757)" style="fill: none; stroke: #000000; stroke-linejoin: miter"/>
   </g>
   <g id="patch_5">
    <path d="M 221.664688 171.855278 
L 237.724896 171.855278 
L 237.724896 150.441667 
L 221.664688 150.441667 
L 221.664688 171.855278 
z
" clip-path="url(#p799c08e757)" style="fill: none; stroke: #000000; stroke-linejoin: miter"/>
   </g>
   <g id="patch_6">
    <path d="M 237.724896 214.6825 
L 253.785104 214.6825 
L 253.785104 193.268889 
L 237.724896 193.268889 
L 237.724896 214.6825 
z
" clip-path="url(#p799c08e757)" style="fill: none; stroke: #000000; stroke-linejoin: miter"/>
   </g>
   <g id="patch_7">
    <path d="M 237.724896 193.268889 
L 253.785104 193.268889 
L 253.785104 171.855278 
L 237.724896 171.855278 
L 237.724896 193.268889 
z
" clip-path="url(#p799c08e757)" style="fill: none; stroke: #000000; stroke-linejoin: miter"/>
   </g>
   <g id="patch_8">
    <path d="M 237.724896 171.855278 
L 253.785104 171.855278 
L 253.785104 150.441667 
L 237.724896 150.441667 
L 237.724896 171.855278 
z
" clip-path="url(#p799c08e757)" style="fill: none; stroke: #000000; stroke-linejoin: miter"/>
   </g>
   <g id="patch_9">
    <path d="M 253.785104 214.6825 
L 269.845312 214.6825 
L 269.845312 193.268889 
L 253.785104 193.268889 
L 253.785104 214.6825 
z
" clip-path="url(#p799c08e757)" style="fill: none; stroke: #000000; stroke-linejoin: miter"/>
   </g>
   <g id="patch_10">
    <path d="M 253.785104 193.268889 
L 269.845312 193.268889 
L 269.845312 171.855278 
L 253.785104 171.855278 
L 253.785104 193.268889 
z
" clip-path="url(#p799c08e757)" style="fill: none; stroke: #000000; stroke-linejoin: miter"/>
   </g>
   <g id="patch_11">
    <path d="M 253.785104 171.855278 
L 269.845312 171.855278 
L 269.845312 150.441667 
L 253.785104 150.441667 
L 253.785104 171.855278 
z
" clip-path="url(#p799c08e757)" style="fill: none; stroke: #000000; stroke-linejoin: miter"/>
   </g>
   <g id="patch_12">
    <path d="M 269.845312 214.6825 
L 285.905521 214.6825 
L 285.905521 193.268889 
L 269.845312 193.268889 
L 269.845312 214.6825 
z
" clip-path="url(#p799c08e757)" style="fill: none; stroke: #000000; stroke-linejoin: miter"/>
   </g>
   <g id="patch_13">
    <path d="M 269.845312 193.268889 
L 285.905521 193.268889 
L 285.905521 171.855278 
L 269.845312 171.855278 
L 269.845312 193.268889 
z
" clip-path="url(#p799c08e757)" style="fill: none; stroke: #000000; stroke-linejoin: miter"/>
   </g>
   <g id="patch_14">
    <path d="M 269.845312 171.855278 
L 285.905521 171.855278 
L 285.905521 150.441667 
L 269.845312 150.441667 
L 269.845312 171.855278 
z
" clip-path="url(#p799c08e757)" style="fill: none; stroke: #000000; stroke-linejoin: miter"/>
   </g>
   <g id="matplotlib.axis_1">
    <g id="xtick_1">
     <g id="line2d_1">
      <defs>
       <path id="mc004abbe79" d="M 0 0 
L 0 3.5 
" style="stroke: #000000; stroke-width: 0.8"/>
      </defs>
      <g>
       <use xlink:href="#mc004abbe79" x="28.942188" y="407.405" style="stroke: #000000; stroke-width: 0.8"/>
      </g>
     </g>
     <g id="text_1">
      <!-- −6 -->
      <g transform="translate(21.571094 422.003437) scale(0.1 -0.1)">
       <defs>
        <path id="DejaVuSans-2212" d="M 678 2272 
L 4684 2272 
L 4684 1741 
L 678 1741 
L 678 2272 
z
" transform="scale(0.015625)"/>
        <path id="DejaVuSans-36" d="M 2113 2584 
Q 1688 2584 1439 2293 
Q 1191 2003 1191 1497 
Q 1191 994 1439 701 
Q 1688 409 2113 409 
Q 2538 409 2786 701 
Q 3034 994 3034 1497 
Q 3034 2003 2786 2293 
Q 2538 2584 2113 2584 
z
M 3366 4563 
L 3366 3988 
Q 3128 4100 2886 4159 
Q 2644 4219 2406 4219 
Q 1781 4219 1451 3797 
Q 1122 3375 1075 2522 
Q 1259 2794 1537 2939 
Q 1816 3084 2150 3084 
Q 2853 3084 3261 2657 
Q 3669 2231 3669 1497 
Q 3669 778 3244 343 
Q 2819 -91 2113 -91 
Q 1303 -91 875 529 
Q 447 1150 447 2328 
Q 447 3434 972 4092 
Q 1497 4750 2381 4750 
Q 2619 4750 2861 4703 
Q 3103 4656 3366 4563 
z
" transform="scale(0.015625)"/>
       </defs>
       <use xlink:href="#DejaVuSans-2212"/>
       <use xlink:href="#DejaVuSans-36" transform="translate(83.789062 0)"/>
      </g>
     </g>
    </g>
    <g id="xtick_2">
     <g id="line2d_2">
      <g>
       <use xlink:href="#mc004abbe79" x="61.062604" y="407.405" style="stroke: #000000; stroke-width: 0.8"/>
      </g>
     </g>
     <g id="text_2">
      <!-- −5 -->
      <g transform="translate(53.69151 422.003437) scale(0.1 -0.1)">
       <defs>
        <path id="DejaVuSans-35" d="M 691 4666 
L 3169 4666 
L 3169 4134 
L 1269 4134 
L 1269 2991 
Q 1406 3038 1543 3061 
Q 1681 3084 1819 3084 
Q 2600 3084 3056 2656 
Q 3513 2228 3513 1497 
Q 3513 744 3044 326 
Q 2575 -91 1722 -91 
Q 1428 -91 1123 -41 
Q 819 9 494 109 
L 494 744 
Q 775 591 1075 516 
Q 1375 441 1709 441 
Q 2250 441 2565 725 
Q 2881 1009 2881 1497 
Q 2881 1984 2565 2268 
Q 2250 2553 1709 2553 
Q 1456 2553 1204 2497 
Q 953 2441 691 2322 
L 691 4666 
z
" transform="scale(0.015625)"/>
       </defs>
       <use xlink:href="#DejaVuSans-2212"/>
       <use xlink:href="#DejaVuSans-35" transform="translate(83.789062 0)"/>
      </g>
     </g>
    </g>
    <g id="xtick_3">
     <g id="line2d_3">
      <g>
       <use xlink:href="#mc004abbe79" x="93.183021" y="407.405" style="stroke: #000000; stroke-width: 0.8"/>
      </g>
     </g>
     <g id="text_3">
      <!-- −4 -->
      <g transform="translate(85.811927 422.003437) scale(0.1 -0.1)">
       <defs>
        <path id="DejaVuSans-34" d="M 2419 4116 
L 825 1625 
L 2419 1625 
L 2419 4116 
z
M 2253 4666 
L 3047 4666 
L 3047 1625 
L 3713 1625 
L 3713 1100 
L 3047 1100 
L 3047 0 
L 2419 0 
L 2419 1100 
L 313 1100 
L 313 1709 
L 2253 4666 
z
" transform="scale(0.015625)"/>
       </defs>
       <use xlink:href="#DejaVuSans-2212"/>
       <use xlink:href="#DejaVuSans-34" transform="translate(83.789062 0)"/>
      </g>
     </g>
    </g>
    <g id="xtick_4">
     <g id="line2d_4">
      <g>
       <use xlink:href="#mc004abbe79" x="125.303438" y="407.405" style="stroke: #000000; stroke-width: 0.8"/>
      </g>
     </g>
     <g id="text_4">
      <!-- −3 -->
      <g transform="translate(117.932344 422.003437) scale(0.1 -0.1)">
       <defs>
        <path id="DejaVuSans-33" d="M 2597 2516 
Q 3050 2419 3304 2112 
Q 3559 1806 3559 1356 
Q 3559 666 3084 287 
Q 2609 -91 1734 -91 
Q 1441 -91 1130 -33 
Q 819 25 488 141 
L 488 750 
Q 750 597 1062 519 
Q 1375 441 1716 441 
Q 2309 441 2620 675 
Q 2931 909 2931 1356 
Q 2931 1769 2642 2001 
Q 2353 2234 1838 2234 
L 1294 2234 
L 1294 2753 
L 1863 2753 
Q 2328 2753 2575 2939 
Q 2822 3125 2822 3475 
Q 2822 3834 2567 4026 
Q 2313 4219 1838 4219 
Q 1578 4219 1281 4162 
Q 984 4106 628 3988 
L 628 4550 
Q 988 4650 1302 4700 
Q 1616 4750 1894 4750 
Q 2613 4750 3031 4423 
Q 3450 4097 3450 3541 
Q 3450 3153 3228 2886 
Q 3006 2619 2597 2516 
z
" transform="scale(0.015625)"/>
       </defs>
       <use xlink:href="#DejaVuSans-2212"/>
       <use xlink:href="#DejaVuSans-33" transform="translate(83.789062 0)"/>
      </g>
     </g>
    </g>
    <g id="xtick_5">
     <g id="line2d_5">
      <g>
       <use xlink:href="#mc004abbe79" x="157.423854" y="407.405" style="stroke: #000000; stroke-width: 0.8"/>
      </g>
     </g>
     <g id="text_5">
      <!-- −2 -->
      <g transform="translate(150.05276 422.003437) scale(0.1 -0.1)">
       <defs>
        <path id="DejaVuSans-32" d="M 1228 531 
L 3431 531 
L 3431 0 
L 469 0 
L 469 531 
Q 828 903 1448 1529 
Q 2069 2156 2228 2338 
Q 2531 2678 2651 2914 
Q 2772 3150 2772 3378 
Q 2772 3750 2511 3984 
Q 2250 4219 1831 4219 
Q 1534 4219 1204 4116 
Q 875 4013 500 3803 
L 500 4441 
Q 881 4594 1212 4672 
Q 1544 4750 1819 4750 
Q 2544 4750 2975 4387 
Q 3406 4025 3406 3419 
Q 3406 3131 3298 2873 
Q 3191 2616 2906 2266 
Q 2828 2175 2409 1742 
Q 1991 1309 1228 531 
z
" transform="scale(0.015625)"/>
       </defs>
       <use xlink:href="#DejaVuSans-2212"/>
       <use xlink:href="#DejaVuSans-32" transform="translate(83.789062 0)"/>
      </g>
     </g>
    </g>
    <g id="xtick_6">
     <g id="line2d_6">
      <g>
       <use xlink:href="#mc004abbe79" x="189.544271" y="407.405" style="stroke: #000000; stroke-width: 0.8"/>
      </g>
     </g>
     <g id="text_6">
      <!-- −1 -->
      <g transform="translate(182.173177 422.003437) scale(0.1 -0.1)">
       <defs>
        <path id="DejaVuSans-31" d="M 794 531 
L 1825 531 
L 1825 4091 
L 703 3866 
L 703 4441 
L 1819 4666 
L 2450 4666 
L 2450 531 
L 3481 531 
L 3481 0 
L 794 0 
L 794 531 
z
" transform="scale(0.015625)"/>
       </defs>
       <use xlink:href="#DejaVuSans-2212"/>
       <use xlink:href="#DejaVuSans-31" transform="translate(83.789062 0)"/>
      </g>
     </g>
    </g>
    <g id="xtick_7">
     <g id="line2d_7">
      <g>
       <use xlink:href="#mc004abbe79" x="221.664688" y="407.405" style="stroke: #000000; stroke-width: 0.8"/>
      </g>
     </g>
     <g id="text_7">
      <!-- 0 -->
      <g transform="translate(218.483438 422.003437) scale(0.1 -0.1)">
       <defs>
        <path id="DejaVuSans-30" d="M 2034 4250 
Q 1547 4250 1301 3770 
Q 1056 3291 1056 2328 
Q 1056 1369 1301 889 
Q 1547 409 2034 409 
Q 2525 409 2770 889 
Q 3016 1369 3016 2328 
Q 3016 3291 2770 3770 
Q 2525 4250 2034 4250 
z
M 2034 4750 
Q 2819 4750 3233 4129 
Q 3647 3509 3647 2328 
Q 3647 1150 3233 529 
Q 2819 -91 2034 -91 
Q 1250 -91 836 529 
Q 422 1150 422 2328 
Q 422 3509 836 4129 
Q 1250 4750 2034 4750 
z
" transform="scale(0.015625)"/>
       </defs>
       <use xlink:href="#DejaVuSans-30"/>
      </g>
     </g>
    </g>
    <g id="xtick_8">
     <g id="line2d_8">
      <g>
       <use xlink:href="#mc004abbe79" x="253.785104" y="407.405" style="stroke: #000000; stroke-width: 0.8"/>
      </g>
     </g>
     <g id="text_8">
      <!-- 1 -->
      <g transform="translate(250.603854 422.003437) scale(0.1 -0.1)">
       <use xlink:href="#DejaVuSans-31"/>
      </g>
     </g>
    </g>
    <g id="xtick_9">
     <g id="line2d_9">
      <g>
       <use xlink:href="#mc004abbe79" x="285.905521" y="407.405" style="stroke: #000000; stroke-width: 0.8"/>
      </g>
     </g>
     <g id="text_9">
      <!-- 2 -->
      <g transform="translate(282.724271 422.003437) scale(0.1 -0.1)">
       <use xlink:href="#DejaVuSans-32"/>
      </g>
     </g>
    </g>
    <g id="xtick_10">
     <g id="line2d_10">
      <g>
       <use xlink:href="#mc004abbe79" x="318.025937" y="407.405" style="stroke: #000000; stroke-width: 0.8"/>
      </g>
     </g>
     <g id="text_10">
      <!-- 3 -->
      <g transform="translate(314.844688 422.003437) scale(0.1 -0.1)">
       <use xlink:href="#DejaVuSans-33"/>
      </g>
     </g>
    </g>
    <g id="xtick_11">
     <g id="line2d_11">
      <g>
       <use xlink:href="#mc004abbe79" x="350.146354" y="407.405" style="stroke: #000000; stroke-width: 0.8"/>
      </g>
     </g>
     <g id="text_11">
      <!-- 4 -->
      <g transform="translate(346.965104 422.003437) scale(0.1 -0.1)">
       <use xlink:href="#DejaVuSans-34"/>
      </g>
     </g>
    </g>
    <g id="xtick_12">
     <g id="line2d_12">
      <g>
       <use xlink:href="#mc004abbe79" x="382.266771" y="407.405" style="stroke: #000000; stroke-width: 0.8"/>
      </g>
     </g>
     <g id="text_12">
      <!-- 5 -->
      <g transform="translate(379.085521 422.003437) scale(0.1 -0.1)">
       <use xlink:href="#DejaVuSans-35"/>
      </g>
     </g>
    </g>
    <g id="xtick_13">
     <g id="line2d_13">
      <g>
       <use xlink:href="#mc004abbe79" x="414.387187" y="407.405" style="stroke: #000000; stroke-width: 0.8"/>
      </g>
     </g>
     <g id="text_13">
      <!-- 6 -->
      <g transform="translate(411.205938 422.003437) scale(0.1 -0.1)">
       <use xlink:href="#DejaVuSans-36"/>
      </g>
     </g>
    </g>
   </g>
   <g id="matplotlib.axis_2">
    <g id="ytick_1">
     <g id="line2d_14">
      <defs>
       <path id="m7bef2b5983" d="M 0 0 
L -3.5 0 
" style="stroke: #000000; stroke-width: 0.8"/>
      </defs>
      <g>
       <use xlink:href="#m7bef2b5983" x="28.942188" y="407.405" style="stroke: #000000; stroke-width: 0.8"/>
      </g>
     </g>
     <g id="text_14">
      <!-- −6 -->
      <g transform="translate(7.2 411.204219) scale(0.1 -0.1)">
       <use xlink:href="#DejaVuSans-2212"/>
       <use xlink:href="#DejaVuSans-36" transform="translate(83.789062 0)"/>
      </g>
     </g>
    </g>
    <g id="ytick_2">
     <g id="line2d_15">
      <g>
       <use xlink:href="#m7bef2b5983" x="28.942188" y="375.284583" style="stroke: #000000; stroke-width: 0.8"/>
      </g>
     </g>
     <g id="text_15">
      <!-- −5 -->
      <g transform="translate(7.2 379.083802) scale(0.1 -0.1)">
       <use xlink:href="#DejaVuSans-2212"/>
       <use xlink:href="#DejaVuSans-35" transform="translate(83.789062 0)"/>
      </g>
     </g>
    </g>
    <g id="ytick_3">
     <g id="line2d_16">
      <g>
       <use xlink:href="#m7bef2b5983" x="28.942188" y="343.164167" style="stroke: #000000; stroke-width: 0.8"/>
      </g>
     </g>
     <g id="text_16">
      <!-- −4 -->
      <g transform="translate(7.2 346.963385) scale(0.1 -0.1)">
       <use xlink:href="#DejaVuSans-2212"/>
       <use xlink:href="#DejaVuSans-34" transform="translate(83.789062 0)"/>
      </g>
     </g>
    </g>
    <g id="ytick_4">
     <g id="line2d_17">
      <g>
       <use xlink:href="#m7bef2b5983" x="28.942188" y="311.04375" style="stroke: #000000; stroke-width: 0.8"/>
      </g>
     </g>
     <g id="text_17">
      <!-- −3 -->
      <g transform="translate(7.2 314.842969) scale(0.1 -0.1)">
       <use xlink:href="#DejaVuSans-2212"/>
       <use xlink:href="#DejaVuSans-33" transform="translate(83.789062 0)"/>
      </g>
     </g>
    </g>
    <g id="ytick_5">
     <g id="line2d_18">
      <g>
       <use xlink:href="#m7bef2b5983" x="28.942188" y="278.923333" style="stroke: #000000; stroke-width: 0.8"/>
      </g>
     </g>
     <g id="text_18">
      <!-- −2 -->
      <g transform="translate(7.2 282.722552) scale(0.1 -0.1)">
       <use xlink:href="#DejaVuSans-2212"/>
       <use xlink:href="#DejaVuSans-32" transform="translate(83.789062 0)"/>
      </g>
     </g>
    </g>
    <g id="ytick_6">
     <g id="line2d_19">
      <g>
       <use xlink:href="#m7bef2b5983" x="28.942188" y="246.802917" style="stroke: #000000; stroke-width: 0.8"/>
      </g>
     </g>
     <g id="text_19">
      <!-- −1 -->
      <g transform="translate(7.2 250.602135) scale(0.1 -0.1)">
       <use xlink:href="#DejaVuSans-2212"/>
       <use xlink:href="#DejaVuSans-31" transform="translate(83.789062 0)"/>
      </g>
     </g>
    </g>
    <g id="ytick_7">
     <g id="line2d_20">
      <g>
       <use xlink:href="#m7bef2b5983" x="28.942188" y="214.6825" style="stroke: #000000; stroke-width: 0.8"/>
      </g>
     </g>
     <g id="text_20">
      <!-- 0 -->
      <g transform="translate(15.579688 218.481719) scale(0.1 -0.1)">
       <use xlink:href="#DejaVuSans-30"/>
      </g>
     </g>
    </g>
    <g id="ytick_8">
     <g id="line2d_21">
      <g>
       <use xlink:href="#m7bef2b5983" x="28.942188" y="182.562083" style="stroke: #000000; stroke-width: 0.8"/>
      </g>
     </g>
     <g id="text_21">
      <!-- 1 -->
      <g transform="translate(15.579688 186.361302) scale(0.1 -0.1)">
       <use xlink:href="#DejaVuSans-31"/>
      </g>
     </g>
    </g>
    <g id="ytick_9">
     <g id="line2d_22">
      <g>
       <use xlink:href="#m7bef2b5983" x="28.942188" y="150.441667" style="stroke: #000000; stroke-width: 0.8"/>
      </g>
     </g>
     <g id="text_22">
      <!-- 2 -->
      <g transform="translate(15.579688 154.240885) scale(0.1 -0.1)">
       <use xlink:href="#DejaVuSans-32"/>
      </g>
     </g>
    </g>
    <g id="ytick_10">
     <g id="line2d_23">
      <g>
       <use xlink:href="#m7bef2b5983" x="28.942188" y="118.32125" style="stroke: #000000; stroke-width: 0.8"/>
      </g>
     </g>
     <g id="text_23">
      <!-- 3 -->
      <g transform="translate(15.579688 122.120469) scale(0.1 -0.1)">
       <use xlink:href="#DejaVuSans-33"/>
      </g>
     </g>
    </g>
    <g id="ytick_11">
     <g id="line2d_24">
      <g>
       <use xlink:href="#m7bef2b5983" x="28.942188" y="86.200833" style="stroke: #000000; stroke-width: 0.8"/>
      </g>
     </g>
     <g id="text_24">
      <!-- 4 -->
      <g transform="translate(15.579688 90.000052) scale(0.1 -0.1)">
       <use xlink:href="#DejaVuSans-34"/>
      </g>
     </g>
    </g>
    <g id="ytick_12">
     <g id="line2d_25">
      <g>
       <use xlink:href="#m7bef2b5983" x="28.942188" y="54.080417" style="stroke: #000000; stroke-width: 0.8"/>
      </g>
     </g>
     <g id="text_25">
      <!-- 5 -->
      <g transform="translate(15.579688 57.879635) scale(0.1 -0.1)">
       <use xlink:href="#DejaVuSans-35"/>
      </g>
     </g>
    </g>
    <g id="ytick_13">
     <g id="line2d_26">
      <g>
       <use xlink:href="#m7bef2b5983" x="28.942188" y="21.96" style="stroke: #000000; stroke-width: 0.8"/>
      </g>
     </g>
     <g id="text_26">
      <!-- 6 -->
      <g transform="translate(15.579688 25.759219) scale(0.1 -0.1)">
       <use xlink:href="#DejaVuSans-36"/>
      </g>
     </g>
    </g>
   </g>
   <g id="line2d_27">
    <path clip-path="url(#p799c08e757)" style="fill: none; stroke: #1a3380; stroke-opacity: 0.3; stroke-linecap: square"/>
   </g>
   <g id="line2d_28">
    <path clip-path="url(#p799c08e757)" style="fill: none; stroke: #1a3380; stroke-opacity: 0.3; stroke-linecap: square"/>
   </g>
   <g id="line2d_29">
    <path clip-path="url(#p799c08e757)" style="fill: none; stroke: #1a3380; stroke-opacity: 0.3; stroke-linecap: square"/>
   </g>
   <g id="line2d_30">
    <path clip-path="url(#p799c08e757)" style="fill: none; stroke: #1a3380; stroke-opacity: 0.3; stroke-linecap: square"/>
   </g>
   <g id="line2d_31">
    <path clip-path="url(#p799c08e757)" style="fill: none; stroke: #1a3380; stroke-opacity: 0.3; stroke-linecap: square"/>
   </g>
   <g id="line2d_32">
    <path clip-path="url(#p799c08e757)" style="fill: none; stroke: #1a3380; stroke-opacity: 0.3; stroke-linecap: square"/>
   </g>
   <g id="line2d_33">
    <path clip-path="url(#p799c08e757)" style="fill: none; stroke: #1a3380; stroke-opacity: 0.3; stroke-linecap: square"/>
   </g>
   <g id="line2d_34">
    <path clip-path="url(#p799c08e757)" style="fill: none; stroke: #1a3380; stroke-opacity: 0.3; stroke-linecap: square"/>
   </g>
   <g id="line2d_35">
    <path clip-path="url(#p799c08e757)" style="fill: none; stroke: #1a3380; stroke-opacity: 0.3; stroke-linecap: square"/>
   </g>
   <g id="line2d_36">
    <path clip-path="url(#p799c08e757)" style="fill: none; stroke: #1a3380; stroke-opacity: 0.3; stroke-linecap: square"/>
   </g>
   <g id="line2d_37">
    <path clip-path="url(#p799c08e757)" style="fill: none; stroke: #1a3380; stroke-opacity: 0.3; stroke-linecap: square"/>
   </g>
   <g id="line2d_38">
    <path clip-path="url(#p799c08e757)" style="fill: none; stroke: #1a3380; stroke-opacity: 0.3; stroke-linecap: square"/>
   </g>
   <g id="line2d_39">
    <path clip-path="url(#p799c08e757)" style="fill: none; stroke: #1a3380; stroke-opacity: 0.3; stroke-linecap: square"/>
   </g>
   <g id="line2d_40">
    <path clip-path="url(#p799c08e757)" style="fill: none; stroke: #1a3380; stroke-opacity: 0.3; stroke-linecap: square"/>
   </g>
   <g id="line2d_41">
    <path clip-path="url(#p799c08e757)" style="fill: none; stroke: #1a3380; stroke-opacity: 0.3; stroke-linecap: square"/>
   </g>
   <g id="line2d_42">
    <path clip-path="url(#p799c08e757)" style="fill: none; stroke: #1a3380; stroke-opacity: 0.3; stroke-linecap: square"/>
   </g>
   <g id="line2d_43">
    <path clip-path="url(#p799c08e757)" style="fill: none; stroke: #1a3380; stroke-opacity: 0.3; stroke-linecap: square"/>
   </g>
   <g id="line2d_44">
    <path clip-path="url(#p799c08e757)" style="fill: none; stroke: #1a3380; stroke-opacity: 0.3; stroke-linecap: square"/>
   </g>
   <g id="line2d_45">
    <path clip-path="url(#p799c08e757)" style="fill: none; stroke: #1a3380; stroke-opacity: 0.3; stroke-linecap: square"/>
   </g>
   <g id="line2d_46">
    <path clip-path="url(#p799c08e757)" style="fill: none; stroke: #1a3380; stroke-opacity: 0.3; stroke-linecap: square"/>
   </g>
   <g id="line2d_47">
    <path clip-path="url(#p799c08e757)" style="fill: none; stroke: #1a3380; stroke-opacity: 0.3; stroke-linecap: square"/>
   </g>
   <g id="line2d_48">
    <path clip-path="url(#p799c08e757)" style="fill: none; stroke: #1a3380; stroke-opacity: 0.3; stroke-linecap: square"/>
   </g>
   <g id="line2d_49">
    <path clip-path="url(#p799c08e757)" style="fill: none; stroke: #1a3380; stroke-opacity: 0.3; stroke-linecap: square"/>
   </g>
   <g id="line2d_50">
    <path clip-path="url(#p799c08e757)" style="fill: none; stroke: #1a3380; stroke-opacity: 0.3; stroke-linecap: square"/>
   </g>
   <g id="line2d_51">
    <path d="M 28.942188 432.283125 
L 28.942188 -1 
" clip-path="url(#p799c08e757)" style="fill: none; stroke: #1a3380; stroke-opacity: 0.3; stroke-linecap: square"/>
   </g>
   <g id="line2d_52">
    <path d="M 61.062604 432.283125 
L 61.062604 -1 
" clip-path="url(#p799c08e757)" style="fill: none; stroke: #1a3380; stroke-opacity: 0.3; stroke-linecap: square"/>
   </g>
   <g id="line2d_53">
    <path d="M 93.183021 432.283125 
L 93.183021 -1 
" clip-path="url(#p799c08e757)" style="fill: none; stroke: #1a3380; stroke-opacity: 0.3; stroke-linecap: square"/>
   </g>
   <g id="line2d_54">
    <path d="M 125.303438 432.283125 
L 125.303438 -1 
" clip-path="url(#p799c08e757)" style="fill: none; stroke: #1a3380; stroke-opacity: 0.3; stroke-linecap: square"/>
   </g>
   <g id="line2d_55">
    <path d="M 157.423854 432.283125 
L 157.423854 -1 
" clip-path="url(#p799c08e757)" style="fill: none; stroke: #1a3380; stroke-opacity: 0.3; stroke-linecap: square"/>
   </g>
   <g id="line2d_56">
    <path d="M 189.544271 432.283125 
L 189.544271 -1 
" clip-path="url(#p799c08e757)" style="fill: none; stroke: #1a3380; stroke-opacity: 0.3; stroke-linecap: square"/>
   </g>
   <g id="line2d_57">
    <path d="M 221.664688 432.283125 
L 221.664688 -1 
" clip-path="url(#p799c08e757)" style="fill: none; stroke: #1a3380; stroke-opacity: 0.3; stroke-width: 4; stroke-linecap: square"/>
   </g>
   <g id="line2d_58">
    <path d="M 253.785104 432.283125 
L 253.785104 -1 
" clip-path="url(#p799c08e757)" style="fill: none; stroke: #1a3380; stroke-opacity: 0.3; stroke-linecap: square"/>
   </g>
   <g id="line2d_59">
    <path d="M 285.905521 432.283125 
L 285.905521 -1 
" clip-path="url(#p799c08e757)" style="fill: none; stroke: #1a3380; stroke-opacity: 0.3; stroke-linecap: square"/>
   </g>
   <g id="line2d_60">
    <path d="M 318.025937 432.283125 
L 318.025937 -1 
" clip-path="url(#p799c08e757)" style="fill: none; stroke: #1a3380; stroke-opacity: 0.3; stroke-linecap: square"/>
   </g>
   <g id="line2d_61">
    <path d="M 350.146354 432.283125 
L 350.146354 -1 
" clip-path="url(#p799c08e757)" style="fill: none; stroke: #1a3380; stroke-opacity: 0.3; stroke-linecap: square"/>
   </g>
   <g id="line2d_62">
    <path d="M 382.266771 432.283125 
L 382.266771 -1 
" clip-path="url(#p799c08e757)" style="fill: none; stroke: #1a3380; stroke-opacity: 0.3; stroke-linecap: square"/>
   </g>
   <g id="line2d_63">
    <path d="M 414.387187 432.283125 
L 414.387187 -1 
" clip-path="url(#p799c08e757)" style="fill: none; stroke: #1a3380; stroke-opacity: 0.3; stroke-linecap: square"/>
   </g>
   <g id="line2d_64">
    <path clip-path="url(#p799c08e757)" style="fill: none; stroke: #1a3380; stroke-opacity: 0.3; stroke-linecap: square"/>
   </g>
   <g id="line2d_65">
    <path clip-path="url(#p799c08e757)" style="fill: none; stroke: #1a3380; stroke-opacity: 0.3; stroke-linecap: square"/>
   </g>
   <g id="line2d_66">
    <path clip-path="url(#p799c08e757)" style="fill: none; stroke: #1a3380; stroke-opacity: 0.3; stroke-linecap: square"/>
   </g>
   <g id="line2d_67">
    <path clip-path="url(#p799c08e757)" style="fill: none; stroke: #1a3380; stroke-opacity: 0.3; stroke-linecap: square"/>
   </g>
   <g id="line2d_68">
    <path clip-path="url(#p799c08e757)" style="fill: none; stroke: #1a3380; stroke-opacity: 0.3; stroke-linecap: square"/>
   </g>
   <g id="line2d_69">
    <path clip-path="url(#p799c08e757)" style="fill: none; stroke: #1a3380; stroke-opacity: 0.3; stroke-linecap: square"/>
   </g>
   <g id="line2d_70">
    <path clip-path="url(#p799c08e757)" style="fill: none; stroke: #1a3380; stroke-opacity: 0.3; stroke-linecap: square"/>
   </g>
   <g id="line2d_71">
    <path clip-path="url(#p799c08e757)" style="fill: none; stroke: #1a3380; stroke-opacity: 0.3; stroke-linecap: square"/>
   </g>
   <g id="line2d_72">
    <path clip-path="url(#p799c08e757)" style="fill: none; stroke: #1a3380; stroke-opacity: 0.3; stroke-linecap: square"/>
   </g>
   <g id="line2d_73">
    <path clip-path="url(#p799c08e757)" style="fill: none; stroke: #1a3380; stroke-opacity: 0.3; stroke-linecap: square"/>
   </g>
   <g id="line2d_74">
    <path clip-path="url(#p799c08e757)" style="fill: none; stroke: #1a3380; stroke-opacity: 0.3; stroke-linecap: square"/>
   </g>
   <g id="line2d_75">
    <path clip-path="url(#p799c08e757)" style="fill: none; stroke: #1a3380; stroke-opacity: 0.3; stroke-linecap: square"/>
   </g>
   <g id="line2d_76">
    <path clip-path="url(#p799c08e757)" style="fill: none; stroke: #1a3380; stroke-opacity: 0.3; stroke-linecap: square"/>
   </g>
   <g id="line2d_77">
    <path clip-path="url(#p799c08e757)" style="fill: none; stroke: #1a3380; stroke-opacity: 0.3; stroke-linecap: square"/>
   </g>
   <g id="line2d_78">
    <path clip-path="url(#p799c08e757)" style="fill: none; stroke: #1a3380; stroke-opacity: 0.3; stroke-linecap: square"/>
   </g>
   <g id="line2d_79">
    <path clip-path="url(#p799c08e757)" style="fill: none; stroke: #1a3380; stroke-opacity: 0.3; stroke-linecap: square"/>
   </g>
   <g id="line2d_80">
    <path clip-path="url(#p799c08e757)" style="fill: none; stroke: #1a3380; stroke-opacity: 0.3; stroke-linecap: square"/>
   </g>
   <g id="line2d_81">
    <path clip-path="url(#p799c08e757)" style="fill: none; stroke: #1a3380; stroke-opacity: 0.3; stroke-linecap: square"/>
   </g>
   <g id="line2d_82">
    <path clip-path="url(#p799c08e757)" style="fill: none; stroke: #1a3380; stroke-opacity: 0.3; stroke-linecap: square"/>
   </g>
   <g id="line2d_83">
    <path clip-path="url(#p799c08e757)" style="fill: none; stroke: #1a3380; stroke-opacity: 0.3; stroke-linecap: square"/>
   </g>
   <g id="line2d_84">
    <path clip-path="url(#p799c08e757)" style="fill: none; stroke: #1a3380; stroke-opacity: 0.3; stroke-linecap: square"/>
   </g>
   <g id="line2d_85">
    <path clip-path="url(#p799c08e757)" style="fill: none; stroke: #1a3380; stroke-opacity: 0.3; stroke-linecap: square"/>
   </g>
   <g id="line2d_86">
    <path clip-path="url(#p799c08e757)" style="fill: none; stroke: #1a3380; stroke-opacity: 0.3; stroke-linecap: square"/>
   </g>
   <g id="line2d_87">
    <path clip-path="url(#p799c08e757)" style="fill: none; stroke: #1a3380; stroke-opacity: 0.3; stroke-linecap: square"/>
   </g>
   <g id="line2d_88">
    <path clip-path="url(#p799c08e757)" style="fill: none; stroke: #1a3380; stroke-opacity: 0.3; stroke-linecap: square"/>
   </g>
   <g id="line2d_89">
    <path clip-path="url(#p799c08e757)" style="fill: none; stroke: #1a3380; stroke-opacity: 0.3; stroke-linecap: square"/>
   </g>
   <g id="line2d_90">
    <path clip-path="url(#p799c08e757)" style="fill: none; stroke: #1a3380; stroke-opacity: 0.3; stroke-linecap: square"/>
   </g>
   <g id="line2d_91">
    <path clip-path="url(#p799c08e757)" style="fill: none; stroke: #1a3380; stroke-opacity: 0.3; stroke-linecap: square"/>
   </g>
   <g id="line2d_92">
    <path clip-path="url(#p799c08e757)" style="fill: none; stroke: #1a3380; stroke-opacity: 0.3; stroke-linecap: square"/>
   </g>
   <g id="line2d_93">
    <path clip-path="url(#p799c08e757)" style="fill: none; stroke: #1a3380; stroke-opacity: 0.3; stroke-linecap: square"/>
   </g>
   <g id="line2d_94">
    <path clip-path="url(#p799c08e757)" style="fill: none; stroke: #1a3380; stroke-opacity: 0.3; stroke-linecap: square"/>
   </g>
   <g id="line2d_95">
    <path clip-path="url(#p799c08e757)" style="fill: none; stroke: #1a3380; stroke-opacity: 0.3; stroke-linecap: square"/>
   </g>
   <g id="line2d_96">
    <path clip-path="url(#p799c08e757)" style="fill: none; stroke: #1a3380; stroke-opacity: 0.3; stroke-linecap: square"/>
   </g>
   <g id="line2d_97">
    <path clip-path="url(#p799c08e757)" style="fill: none; stroke: #1a3380; stroke-opacity: 0.3; stroke-linecap: square"/>
   </g>
   <g id="line2d_98">
    <path clip-path="url(#p799c08e757)" style="fill: none; stroke: #1a3380; stroke-opacity: 0.3; stroke-linecap: square"/>
   </g>
   <g id="line2d_99">
    <path clip-path="url(#p799c08e757)" style="fill: none; stroke: #1a3380; stroke-opacity: 0.3; stroke-linecap: square"/>
   </g>
   <g id="line2d_100">
    <path clip-path="url(#p799c08e757)" style="fill: none; stroke: #1a3380; stroke-opacity: 0.3; stroke-linecap: square"/>
   </g>
   <g id="line2d_101">
    <path clip-path="url(#p799c08e757)" style="fill: none; stroke: #1a3380; stroke-opacity: 0.3; stroke-linecap: square"/>
   </g>
   <g id="line2d_102">
    <path clip-path="url(#p799c08e757)" style="fill: none; stroke: #1a3380; stroke-opacity: 0.3; stroke-linecap: square"/>
   </g>
   <g id="line2d_103">
    <path clip-path="url(#p799c08e757)" style="fill: none; stroke: #1a3380; stroke-opacity: 0.3; stroke-linecap: square"/>
   </g>
   <g id="line2d_104">
    <path clip-path="url(#p799c08e757)" style="fill: none; stroke: #1a3380; stroke-opacity: 0.3; stroke-linecap: square"/>
   </g>
   <g id="line2d_105">
    <path clip-path="url(#p799c08e757)" style="fill: none; stroke: #1a3380; stroke-opacity: 0.3; stroke-linecap: square"/>
   </g>
   <g id="line2d_106">
    <path clip-path="url(#p799c08e757)" style="fill: none; stroke: #1a3380; stroke-opacity: 0.3; stroke-linecap: square"/>
   </g>
   <g id="line2d_107">
    <path clip-path="url(#p799c08e757)" style="fill: none; stroke: #1a3380; stroke-opacity: 0.3; stroke-linecap: square"/>
   </g>
   <g id="line2d_108">
    <path clip-path="url(#p799c08e757)" style="fill: none; stroke: #1a3380; stroke-opacity: 0.3; stroke-linecap: square"/>
   </g>
   <g id="line2d_109">
    <path clip-path="url(#p799c08e757)" style="fill: none; stroke: #1a3380; stroke-opacity: 0.3; stroke-linecap: square"/>
   </g>
   <g id="line2d_110">
    <path clip-path="url(#p799c08e757)" style="fill: none; stroke: #1a3380; stroke-opacity: 0.3; stroke-linecap: square"/>
   </g>
   <g id="line2d_111">
    <path d="M -1 407.405 
L 425.768437 407.405 
" clip-path="url(#p799c08e757)" style="fill: none; stroke: #1a3380; stroke-opacity: 0.3; stroke-linecap: square"/>
   </g>
   <g id="line2d_112">
    <path d="M -1 375.284583 
L 425.768437 375.284583 
" clip-path="url(#p799c08e757)" style="fill: none; stroke: #1a3380; stroke-opacity: 0.3; stroke-linecap: square"/>
   </g>
   <g id="line2d_113">
    <path d="M -1 343.164167 
L 425.768437 343.164167 
" clip-path="url(#p799c08e757)" style="fill: none; stroke: #1a3380; stroke-opacity: 0.3; stroke-linecap: square"/>
   </g>
   <g id="line2d_114">
    <path d="M -1 311.04375 
L 425.768437 311.04375 
" clip-path="url(#p799c08e757)" style="fill: none; stroke: #1a3380; stroke-opacity: 0.3; stroke-linecap: square"/>
   </g>
   <g id="line2d_115">
    <path d="M -1 278.923333 
L 425.768437 278.923333 
" clip-path="url(#p799c08e757)" style="fill: none; stroke: #1a3380; stroke-opacity: 0.3; stroke-linecap: square"/>
   </g>
   <g id="line2d_116">
    <path d="M -1 246.802917 
L 425.768437 246.802917 
" clip-path="url(#p799c08e757)" style="fill: none; stroke: #1a3380; stroke-opacity: 0.3; stroke-linecap: square"/>
   </g>
   <g id="line2d_117">
    <path d="M -1 214.6825 
L 425.768437 214.6825 
" clip-path="url(#p799c08e757)" style="fill: none; stroke: #1a3380; stroke-opacity: 0.3; stroke-width: 4; stroke-linecap: square"/>
   </g>
   <g id="line2d_118">
    <path d="M -1 182.562083 
L 425.768437 182.562083 
" clip-path="url(#p799c08e757)" style="fill: none; stroke: #1a3380; stroke-opacity: 0.3; stroke-linecap: square"/>
   </g>
   <g id="line2d_119">
    <path d="M -1 150.441667 
L 425.768437 150.441667 
" clip-path="url(#p799c08e757)" style="fill: none; stroke: #1a3380; stroke-opacity: 0.3; stroke-linecap: square"/>
   </g>
   <g id="line2d_120">
    <path d="M -1 118.32125 
L 425.768437 118.32125 
" clip-path="url(#p799c08e757)" style="fill: none; stroke: #1a3380; stroke-opacity: 0.3; stroke-linecap: square"/>
   </g>
   <g id="line2d_121">
    <path d="M -1 86.200833 
L 425.768437 86.200833 
" clip-path="url(#p799c08e757)" style="fill: none; stroke: #1a3380; stroke-opacity: 0.3; stroke-linecap: square"/>
   </g>
   <g id="line2d_122">
    <path d="M -1 54.080417 
L 425.768437 54.080417 
" clip-path="url(#p799c08e757)" style="fill: none; stroke: #1a3380; stroke-opacity: 0.3; stroke-linecap: square"/>
   </g>
   <g id="line2d_123">
    <path d="M -1 21.96 
L 425.768437 21.96 
" clip-path="url(#p799c08e757)" style="fill: none; stroke: #1a3380; stroke-opacity: 0.3; stroke-linecap: square"/>
   </g>
   <g id="line2d_124">
    <path clip-path="url(#p799c08e757)" style="fill: none; stroke: #1a3380; stroke-opacity: 0.3; stroke-linecap: square"/>
   </g>
   <g id="line2d_125">
    <path clip-path="url(#p799c08e757)" style="fill: none; stroke: #1a3380; stroke-opacity: 0.3; stroke-linecap: square"/>
   </g>
   <g id="line2d_126">
    <path clip-path="url(#p799c08e757)" style="fill: none; stroke: #1a3380; stroke-opacity: 0.3; stroke-linecap: square"/>
   </g>
   <g id="line2d_127">
    <path clip-path="url(#p799c08e757)" style="fill: none; stroke: #1a3380; stroke-opacity: 0.3; stroke-linecap: square"/>
   </g>
   <g id="line2d_128">
    <path clip-path="url(#p799c08e757)" style="fill: none; stroke: #1a3380; stroke-opacity: 0.3; stroke-linecap: square"/>
   </g>
   <g id="line2d_129">
    <path clip-path="url(#p799c08e757)" style="fill: none; stroke: #1a3380; stroke-opacity: 0.3; stroke-linecap: square"/>
   </g>
   <g id="line2d_130">
    <path clip-path="url(#p799c08e757)" style="fill: none; stroke: #1a3380; stroke-opacity: 0.3; stroke-linecap: square"/>
   </g>
   <g id="line2d_131">
    <path clip-path="url(#p799c08e757)" style="fill: none; stroke: #1a3380; stroke-opacity: 0.3; stroke-linecap: square"/>
   </g>
   <g id="line2d_132">
    <path clip-path="url(#p799c08e757)" style="fill: none; stroke: #1a3380; stroke-opacity: 0.3; stroke-linecap: square"/>
   </g>
   <g id="line2d_133">
    <path clip-path="url(#p799c08e757)" style="fill: none; stroke: #1a3380; stroke-opacity: 0.3; stroke-linecap: square"/>
   </g>
   <g id="line2d_134">
    <path clip-path="url(#p799c08e757)" style="fill: none; stroke: #1a3380; stroke-opacity: 0.3; stroke-linecap: square"/>
   </g>
   <g id="line2d_135">
    <path clip-path="url(#p799c08e757)" style="fill: none; stroke: #1a3380; stroke-opacity: 0.3; stroke-linecap: square"/>
   </g>
   <g id="line2d_136">
    <path clip-path="url(#p799c08e757)" style="fill: none; stroke: #1a3380; stroke-opacity: 0.3; stroke-linecap: square"/>
   </g>
   <g id="line2d_137">
    <path clip-path="url(#p799c08e757)" style="fill: none; stroke: #1a3380; stroke-opacity: 0.3; stroke-linecap: square"/>
   </g>
   <g id="line2d_138">
    <path clip-path="url(#p799c08e757)" style="fill: none; stroke: #1a3380; stroke-opacity: 0.3; stroke-linecap: square"/>
   </g>
   <g id="line2d_139">
    <path clip-path="url(#p799c08e757)" style="fill: none; stroke: #1a3380; stroke-opacity: 0.3; stroke-linecap: square"/>
   </g>
   <g id="line2d_140">
    <path clip-path="url(#p799c08e757)" style="fill: none; stroke: #1a3380; stroke-opacity: 0.3; stroke-linecap: square"/>
   </g>
   <g id="line2d_141">
    <path clip-path="url(#p799c08e757)" style="fill: none; stroke: #1a3380; stroke-opacity: 0.3; stroke-linecap: square"/>
   </g>
   <g id="line2d_142">
    <path clip-path="url(#p799c08e757)" style="fill: none; stroke: #1a3380; stroke-opacity: 0.3; stroke-linecap: square"/>
   </g>
   <g id="line2d_143">
    <path clip-path="url(#p799c08e757)" style="fill: none; stroke: #1a3380; stroke-opacity: 0.3; stroke-linecap: square"/>
   </g>
   <g id="line2d_144">
    <path clip-path="url(#p799c08e757)" style="fill: none; stroke: #1a3380; stroke-opacity: 0.3; stroke-linecap: square"/>
   </g>
   <g id="line2d_145">
    <path clip-path="url(#p799c08e757)" style="fill: none; stroke: #1a3380; stroke-opacity: 0.3; stroke-linecap: square"/>
   </g>
   <g id="line2d_146">
    <path clip-path="url(#p799c08e757)" style="fill: none; stroke: #1a3380; stroke-opacity: 0.3; stroke-linecap: square"/>
   </g>
   <g id="line2d_147">
    <path d="M 221.664688 214.6825 
L 253.785104 214.6825 
" clip-path="url(#p799c08e757)" style="fill: none; stroke: #0000ff; stroke-linecap: square"/>
   </g>
   <g id="line2d_148">
    <path d="M 221.664688 214.6825 
L 221.664688 182.562083 
" clip-path="url(#p799c08e757)" style="fill: none; stroke: #ff00ff; stroke-linecap: square"/>
   </g>
   <g id="patch_15">
    <path d="M 28.942188 407.405 
L 28.942188 21.96 
" style="fill: none; stroke: #000000; stroke-width: 0.8; stroke-linejoin: miter; stroke-linecap: square"/>
   </g>
   <g id="patch_16">
    <path d="M 414.387187 407.405 
L 414.387187 21.96 
" style="fill: none; stroke: #000000; stroke-width: 0.8; stroke-linejoin: miter; stroke-linecap: square"/>
   </g>
   <g id="patch_17">
    <path d="M 28.942188 407.405 
L 414.387187 407.405 
" style="fill: none; stroke: #000000; stroke-width: 0.8; stroke-linejoin: miter; stroke-linecap: square"/>
   </g>
   <g id="patch_18">
    <path d="M 28.942188 21.96 
L 414.387187 21.96 
" style="fill: none; stroke: #000000; stroke-width: 0.8; stroke-linejoin: miter; stroke-linecap: square"/>
   </g>
   <g id="text_27">
    <!-- $T_{&lt;[1.0, 1.0]&gt;} \circ I$ -->
    <g transform="translate(180.864688 15.96) scale(0.12 -0.12)">
     <defs>
      <path id="DejaVuSans-Oblique-54" d="M 378 4666 
L 4325 4666 
L 4225 4134 
L 2559 4134 
L 1759 0 
L 1125 0 
L 1925 4134 
L 275 4134 
L 378 4666 
z
" transform="scale(0.015625)"/>
      <path id="DejaVuSans-3c" d="M 4684 3150 
L 1459 2003 
L 4684 863 
L 4684 294 
L 678 1747 
L 678 2266 
L 4684 3719 
L 4684 3150 
z
" transform="scale(0.015625)"/>
      <path id="DejaVuSans-5b" d="M 550 4863 
L 1875 4863 
L 1875 4416 
L 1125 4416 
L 1125 -397 
L 1875 -397 
L 1875 -844 
L 550 -844 
L 550 4863 
z
" transform="scale(0.015625)"/>
      <path id="DejaVuSans-2e" d="M 684 794 
L 1344 794 
L 1344 0 
L 684 0 
L 684 794 
z
" transform="scale(0.015625)"/>
      <path id="DejaVuSans-2c" d="M 750 794 
L 1409 794 
L 1409 256 
L 897 -744 
L 494 -744 
L 750 256 
L 750 794 
z
" transform="scale(0.015625)"/>
      <path id="DejaVuSans-5d" d="M 1947 4863 
L 1947 -844 
L 622 -844 
L 622 -397 
L 1369 -397 
L 1369 4416 
L 622 4416 
L 622 4863 
L 1947 4863 
z
" transform="scale(0.015625)"/>
      <path id="DejaVuSans-3e" d="M 678 3150 
L 678 3719 
L 4684 2266 
L 4684 1747 
L 678 294 
L 678 863 
L 3897 2003 
L 678 3150 
z
" transform="scale(0.015625)"/>
      <path id="DejaVuSans-2218" d="M 2003 2603 
Q 1753 2603 1581 2429 
Q 1409 2256 1409 2006 
Q 1409 1759 1581 1589 
Q 1753 1419 2003 1419 
Q 2253 1419 2425 1589 
Q 2597 1759 2597 2006 
Q 2597 2253 2423 2428 
Q 2250 2603 2003 2603 
z
M 2003 3006 
Q 2203 3006 2387 2929 
Q 2572 2853 2706 2709 
Q 2850 2569 2922 2390 
Q 2994 2212 2994 2006 
Q 2994 1594 2705 1308 
Q 2416 1022 1997 1022 
Q 1575 1022 1294 1303 
Q 1013 1584 1013 2006 
Q 1013 2425 1300 2715 
Q 1588 3006 2003 3006 
z
" transform="scale(0.015625)"/>
      <path id="DejaVuSans-Oblique-49" d="M 1081 4666 
L 1716 4666 
L 806 0 
L 172 0 
L 1081 4666 
z
" transform="scale(0.015625)"/>
     </defs>
     <use xlink:href="#DejaVuSans-Oblique-54" transform="translate(0 0.09375)"/>
     <use xlink:href="#DejaVuSans-3c" transform="translate(74.72168 -16.3125) scale(0.7)"/>
     <use xlink:href="#DejaVuSans-5b" transform="translate(147.011719 -16.3125) scale(0.7)"/>
     <use xlink:href="#DejaVuSans-31" transform="translate(174.321289 -16.3125) scale(0.7)"/>
     <use xlink:href="#DejaVuSans-2e" transform="translate(218.857422 -16.3125) scale(0.7)"/>
     <use xlink:href="#DejaVuSans-30" transform="translate(241.108398 -16.3125) scale(0.7)"/>
     <use xlink:href="#DejaVuSans-2c" transform="translate(285.644531 -16.3125) scale(0.7)"/>
     <use xlink:href="#DejaVuSans-31" transform="translate(321.533203 -16.3125) scale(0.7)"/>
     <use xlink:href="#DejaVuSans-2e" transform="translate(366.069336 -16.3125) scale(0.7)"/>
     <use xlink:href="#DejaVuSans-30" transform="translate(388.320312 -16.3125) scale(0.7)"/>
     <use xlink:href="#DejaVuSans-5d" transform="translate(432.856445 -16.3125) scale(0.7)"/>
     <use xlink:href="#DejaVuSans-3e" transform="translate(473.803711 -16.3125) scale(0.7)"/>
     <use xlink:href="#DejaVuSans-2218" transform="translate(568.310547 0.09375)"/>
     <use xlink:href="#DejaVuSans-Oblique-49" transform="translate(650.390625 0.09375)"/>
    </g>
   </g>
  </g>
 </g>
 <defs>
  <clipPath id="p799c08e757">
   <rect x="28.942188" y="21.96" width="385.445" height="385.445"/>
  </clipPath>
 </defs>
</svg>